<svg version="1.1" xmlns="http://www.w3.org/2000/svg" width="1024" height="1024" viewBox="0 0 1024 1024">
<title>wolframlanguage</title>
<g id="icomoon-ignore">
</g>
<path d="M611.627 530.432c-23.552 6.357-26.24 7.68-49.664 14.379-25.131-14.379-47.232-22.443-68.053-19.755 2.432-13.056 6.443-22.4 10.453-34.133 44.203-6.443 77.013 17.067 107.264 39.509zM838.101 837.675c-24.014 24.065-50.666 45.481-79.489 63.783l-1.876 1.113h-0.256l-157.952-196.864 130.987 14.336c0 0 62.763 6.443 77.099 0 13.141-4.992 83.755-104.491 83.755-104.491s-203.051-128.384-272.384-199.083c8.021-119.211-9.088-277.717-9.088-276.437-50.901 50.987-57.6 59.008-108.544 106.197-22.187-72.021-32.811-96.811-54.997-168.875-66.901 54.997-117.888 147.797-154.453 256.683-7.585 8.385-15.278 17.498-22.659 26.869l-0.85 1.12c-4.779 6.699-9.813 13.355-14.677 20.267-9.856 13.909-19.2 28.8-28.288 44.032-6.4 10.965-12.757 22.187-18.688 33.621-2.688 4.779-5.333 9.856-8.021 14.933-38.955 76.288-71.509 161.664-99.797 239.104-29.352-58.989-46.535-128.478-46.549-201.979v-0.005c0-122.155 48.555-239.531 134.997-325.973s203.477-134.784 325.632-134.784c0.133 0 0.29 0 0.448 0 127.135 0 242.245 51.487 325.616 134.746l-0.005-0.005c83.189 83.535 134.628 198.745 134.656 325.968v0.005c-0.003 127.145-51.434 242.277-134.625 325.729l0.012-0.012zM512 285.483c35.499-34.176 40.576-39.253 74.709-72.064 2.688 65.365 1.323 99.541-2.688 179.328-19.755-19.541-58.923-44.544-58.923-44.544s-7.723-45.653-13.099-62.72zM675.584 945.28c-282.283 102.101-486.315-85.931-529.792-151.552 0.256-0.597 0.256-1.152 0.256-1.664 39.253-165.931 87.808-364.16 165.717-422.827 40.747-70.656 52.523-175.531 125.568-230.485 18.432 54.955 47.232 168.875 66.987 223.829 86.4 86.443 217.045 193.963 304.896 238.507 9.045 5.12 20.864 41.856 20.864 41.856l-35.2 44.288-376.96-37.845c-8.533-0.853-16.811-1.195-25.344-1.195-24.277 0-49.067 3.115-78.208 7.68 18.432-45.696 57.6-82.603 57.6-82.603s-36.48-22.144-64.213-25.813c7.979-18.432 29.056-42.197 34.091-48.555-10.368 3.712-86.4 37.888-94.165 66.688 36.565 9.131 62.677 20.779 62.677 20.779s-40.491 40.832-48.256 111.445c0 0 120.32-18.389 210.731-6.528 2.688 1.28 4.011 1.28 5.333 1.28l47.019 1.323 150.869 251.136c-0.090 0.154-0.255 0.257-0.444 0.257-0.009 0-0.018 0-0.027-0.001h0.001zM874.069 149.973c-92.707-92.589-220.689-149.878-362.051-149.973h-0.018c-135.765 0-265.899 54.187-361.984 149.973-95.744 96.043-149.931 226.219-149.931 362.027s54.187 266.027 149.888 361.728c92.56 92.866 220.594 150.325 362.048 150.325s269.488-57.459 362.034-150.311l0.014-0.014c96.043-95.701 149.845-225.963 149.845-361.728s-53.803-265.984-149.845-362.027z"></path>
</svg>